HIERARCHY
ROOT Hips
{
	OFFSET 0.000000 0.000000 0.000000 
	CHANNELS 6 Xposition Yposition Zposition Zrotation Xrotation Yrotation
	JOINT Spine
	{
		OFFSET -0.000000 8.280624 0.000000 
		CHANNELS 3 Zrotation Xrotation Yrotation
		JOINT Spine1
		{
			OFFSET -0.000000 24.860672 0.000000 
			CHANNELS 3 Zrotation Xrotation Yrotation
			JOINT Neck
			{
				OFFSET -0.000000 24.758574 2.250779 
				CHANNELS 3 Zrotation Xrotation Yrotation
				JOINT Head
				{
					OFFSET -0.000000 14.137651 -2.019665 
					CHANNELS 3 Zrotation Xrotation Yrotation
					End Site
					{
						OFFSET -0.000000 25.245806 0.000000 
					}
				}
			}
			JOINT LeftShoulder
			{
				OFFSET 4.021533 22.370487 -0.301823 
				CHANNELS 3 Zrotation Xrotation Yrotation
				JOINT LeftArm
				{
					OFFSET 12.928750 0.000000 0.000000 
					CHANNELS 3 Zrotation Xrotation Yrotation
					JOINT LeftForeArm
					{
						OFFSET 29.110218 0.000000 0.000000 
						CHANNELS 3 Zrotation Xrotation Yrotation
						JOINT LeftHand
						{
							OFFSET 26.112843 0.000000 0.000000 
							CHANNELS 3 Zrotation Xrotation Yrotation
							End Site
							{
								OFFSET 15.147485 0.000000 0.000000 
							}
						}
					}
				}
			}
			JOINT RightShoulder
			{
				OFFSET -4.040554 22.370487 -0.301823 
				CHANNELS 3 Zrotation Xrotation Yrotation
				JOINT RightArm
				{
					OFFSET -12.928750 0.000000 0.000000 
					CHANNELS 3 Zrotation Xrotation Yrotation
					JOINT RightForeArm
					{
						OFFSET -29.110218 0.000000 0.000000 
						CHANNELS 3 Zrotation Xrotation Yrotation
						JOINT RightHand
						{
							OFFSET -26.112843 0.000000 0.000000 
							CHANNELS 3 Zrotation Xrotation Yrotation
							End Site
							{
								OFFSET -15.147485 0.000000 0.000000 
							}
						}
					}
				}
			}
		}
	}
	JOINT LeftUpLeg
	{
		OFFSET 10.098323 0.000000 0.000000 
		CHANNELS 3 Zrotation Xrotation Yrotation
		JOINT LeftLeg
		{
			OFFSET -0.000000 -44.180832 0.000000 
			CHANNELS 3 Zrotation Xrotation Yrotation
			JOINT LeftFoot
			{
				OFFSET -0.000000 -40.401024 0.000000 
				CHANNELS 3 Zrotation Xrotation Yrotation
				JOINT LeftToeBase
				{
					OFFSET -0.000000 -6.563910 15.147485 
					CHANNELS 3 Zrotation Xrotation Yrotation
					End Site
					{
						OFFSET -0.000000 0.000000 4.039329 
					}
				}
			}
		}
	}
	JOINT RightUpLeg
	{
		OFFSET -10.098323 0.000000 0.000000 
		CHANNELS 3 Zrotation Xrotation Yrotation
		JOINT RightLeg
		{
			OFFSET -0.000000 -44.180832 0.000000 
			CHANNELS 3 Zrotation Xrotation Yrotation
			JOINT RightFoot
			{
				OFFSET -0.000000 -40.401024 0.000000 
				CHANNELS 3 Zrotation Xrotation Yrotation
				JOINT RightToeBase
				{
					OFFSET -0.000000 -6.563910 15.147485 
					CHANNELS 3 Zrotation Xrotation Yrotation
					End Site
					{
						OFFSET -0.000000 0.000000 4.039329 
					}
				}
			}
		}
	}
}
MOTION
Frames: 10
Frame Time: 0.008333
-41.598446 99.427589 -29.136154 -13.152284 32.693077 176.701477 0.684816 15.461956 10.851501 18.644751 -10.992089 12.754505 -4.058367 26.032604 -17.602625 -0.453073 26.020742 -18.672943 0.834524 -1.651636 -22.469265 -57.202770 31.583157 -52.136303 -19.960297 -36.651550 -29.731348 21.758839 -37.689175 20.853458 -0.832588 -3.081662 24.992498 44.676159 22.030048 48.864075 -4.660869 -31.293255 4.607147 23.851112 -33.098701 -10.954812 -23.821304 22.625525 -11.696459 -3.040644 9.811052 -8.898760 -2.928717 26.659384 2.386933 0.000000 0.000000 0.000000 -32.207108 47.413414 2.556749 -4.028756 26.736551 10.904699 9.507821 31.298492 -25.878719 0.000000 0.000000 0.000000 
-41.608669 99.758614 -29.500210 -14.152956 33.256958 179.636353 0.587727 15.940782 11.027138 18.829575 -11.473479 13.018310 -4.669369 26.118469 -18.065416 0.555040 26.322548 -19.317875 1.212976 -1.703555 -22.323009 -57.231812 31.780199 -51.443230 -20.470549 -36.413403 -33.285973 23.360302 -37.771309 21.450359 -1.431804 -4.217007 24.774076 44.876678 22.686687 49.737713 -4.858723 -31.297785 4.839168 23.183451 -33.057133 -11.098476 -23.904369 24.255903 -13.575382 -2.821025 9.480398 -9.209922 -3.149106 27.141973 2.860207 0.000000 0.000000 0.000000 -31.004820 49.416309 1.656963 -3.959175 26.302353 11.495233 10.310637 32.390232 -26.944790 0.000000 0.000000 0.000000 
-41.656418 100.042068 -29.836031 -15.264932 33.675892 -177.276520 0.451506 16.449162 11.092710 19.022541 -12.065696 13.187033 -5.356854 25.972916 -18.356667 1.291498 26.868248 -19.761692 1.655011 -1.489681 -22.194248 -57.190212 31.686100 -50.835640 -21.099691 -36.162056 -37.091591 24.726065 -37.990864 21.964596 -2.375176 -5.357788 24.534281 45.890301 22.782177 50.589668 -4.897033 -30.568367 5.125230 22.855597 -32.329498 -11.259204 -23.996519 25.744427 -15.447537 -2.502176 9.286308 -9.572596 -3.349671 27.523346 3.197995 0.000000 0.000000 0.000000 -29.608997 51.326511 0.630061 -3.825101 25.848288 11.287214 10.859830 33.700459 -27.224939 0.000000 0.000000 0.000000 
-41.732941 100.286781 -30.151943 -16.519480 33.829453 -174.203720 0.250092 16.751659 11.092939 19.136780 -12.549568 13.253723 -6.253095 25.680714 -18.473816 2.000920 27.433939 -20.038126 2.060738 -1.060319 -22.004953 -57.075161 31.194906 -50.198147 -22.061687 -35.675640 -41.059395 25.883286 -38.311211 21.825432 -3.490582 -6.467657 24.398521 46.633343 23.107800 51.669285 -4.886383 -30.181318 5.631166 21.726320 -31.898586 -11.654847 -24.119480 27.002779 -17.426569 -2.226172 9.075465 -9.860237 -3.539929 27.868580 3.511498 0.000000 0.000000 0.000000 -28.199442 52.986595 -0.308077 -3.601318 25.354010 10.873733 11.381912 34.984276 -27.330313 0.000000 0.000000 0.000000 
-41.840488 100.502312 -30.442101 -17.842108 33.736702 -171.176926 -0.089009 16.776800 11.131821 19.272604 -12.843841 13.308605 -6.745659 25.460018 -18.725731 2.248983 27.482645 -20.360151 2.388878 -0.528852 -21.936728 -57.181091 30.218081 -49.441261 -22.823553 -34.580296 -44.809494 26.296265 -38.153687 21.640638 -4.815423 -7.840391 24.115639 47.360741 23.672192 52.689663 -4.784953 -29.849512 6.339007 20.715532 -31.521994 -12.044019 -24.201097 28.071350 -19.591240 -2.060936 8.802703 -10.027989 -3.636498 28.177910 3.763336 0.000000 0.000000 0.000000 -26.754055 54.394806 -1.342253 -3.363898 24.867641 10.495105 11.546089 36.243938 -27.053495 0.000000 0.000000 0.000000 
-41.975254 100.692261 -30.710489 -19.174129 33.465569 -168.274475 -0.421806 16.507915 11.200630 19.123013 -12.700489 13.287607 -6.490136 24.871582 -19.163067 1.876730 27.295525 -20.708658 2.781812 -0.329580 -21.836157 -57.417381 29.360558 -48.762421 -23.154688 -33.406364 -48.292969 26.927654 -37.622654 22.142302 -6.079069 -9.664825 23.597700 48.415100 24.123295 53.382477 -4.340961 -29.128071 7.404534 20.214441 -30.818836 -12.473476 -24.288145 28.984894 -21.679401 -1.922450 8.500588 -10.062895 -3.705222 28.521730 3.848239 0.000000 0.000000 0.000000 -25.389946 55.564766 -2.590936 -3.190638 24.381659 10.084229 11.362720 37.520164 -26.251919 0.000000 0.000000 0.000000 
-42.119148 100.861679 -30.973608 -20.382156 33.069565 -165.610779 -0.430052 16.336813 11.121522 18.503372 -12.688148 13.135089 -6.642128 24.399683 -19.330309 2.030673 27.144495 -20.878576 3.189422 -0.035264 -21.470629 -57.607365 28.245850 -47.923489 -24.019875 -32.073254 -51.902058 27.807343 -37.298462 22.119576 -7.034825 -11.095554 23.320530 49.154736 24.532152 54.475975 -4.173834 -28.511885 8.342978 19.023825 -30.176352 -13.152204 -24.295149 29.786121 -23.625496 -1.802970 8.146651 -10.091530 -3.842635 28.852539 3.910568 0.000000 0.000000 0.000000 -24.031208 56.545616 -3.861778 -3.071723 23.872967 9.830964 11.108938 38.763317 -25.307501 0.000000 0.000000 0.000000 
-42.229534 100.997475 -31.217878 -21.375948 32.548412 -163.260071 -2.508013 15.255643 11.663298 22.331530 -12.265077 13.757569 -9.759439 25.346886 -19.234831 3.289275 26.429937 -21.234810 1.180617 0.906871 -22.311752 -57.569576 25.977198 -46.444412 -25.234440 -30.451178 -55.645332 28.215281 -37.101685 21.959255 -11.222781 -12.023186 23.333883 50.575851 24.218296 55.524281 -3.987827 -28.216818 9.175887 17.295460 -29.789230 -13.854578 -24.159534 30.435986 -25.087345 -1.630443 7.753492 -10.521448 -3.945680 29.063084 3.919612 0.000000 0.000000 0.000000 -22.581539 57.278717 -5.210400 -3.046697 23.391323 9.831853 10.788119 39.932705 -24.258936 0.000000 0.000000 0.000000 
-42.351860 101.105652 -31.441248 -22.236837 32.020927 -161.197739 -2.300138 15.227605 11.617252 21.462900 -12.538351 13.695538 -9.822460 25.251875 -19.341158 3.408158 26.058311 -21.341791 1.265186 1.205728 -21.847282 -57.894058 24.573576 -45.305557 -26.519629 -29.046988 -59.152004 30.473375 -36.822323 22.241394 -11.721501 -13.108317 23.301710 50.450829 24.768362 56.841175 -3.762493 -28.031616 10.030120 15.889721 -29.487940 -14.192904 -24.008871 31.015896 -26.171535 -1.440273 7.331833 -11.056149 -4.060525 29.222555 3.914853 0.000000 0.000000 0.000000 -21.334579 57.880676 -6.261535 -2.946644 22.882338 9.448476 10.206310 41.105560 -22.850412 0.000000 0.000000 0.000000 
-42.465538 101.185181 -31.664812 -22.927433 31.513567 -159.378845 0.582608 16.693459 10.658320 15.549942 -14.227301 12.696405 -7.987764 24.573116 -19.016161 3.247674 26.352436 -20.780869 4.051468 1.458581 -19.961885 -58.344624 23.541544 -44.521465 -27.883343 -27.235306 -62.641827 33.322605 -36.214054 22.628382 -8.933830 -14.018575 24.024942 49.424938 26.014078 58.685028 -4.405954 -28.044304 10.490910 15.253291 -29.387924 -14.383329 -23.726137 31.536772 -27.349388 -1.356328 6.891449 -11.405947 -4.232728 29.271585 4.041667 0.000000 0.000000 0.000000 -20.114433 58.408241 -7.129169 -2.815901 22.371826 9.012484 9.509129 42.160755 -21.380770 0.000000 0.000000 0.000000 
